<?xml version="1.0" encoding="utf-8"?>
<!-- Generator: Adobe Illustrator 16.0.4, SVG Export Plug-In . SVG Version: 6.00 Build 0)  -->
<!DOCTYPE svg PUBLIC "-//W3C//DTD SVG 1.1//EN" "http://www.w3.org/Graphics/SVG/1.1/DTD/svg11.dtd">
<svg version="1.1" id="Layer_1" xmlns="http://www.w3.org/2000/svg" xmlns:xlink="http://www.w3.org/1999/xlink" x="0px" y="0px"
	 width="512px" height="512px" viewBox="0 0 512 512" enable-background="new 0 0 512 512" xml:space="preserve">
<path d="M448,384H64c-35.2,0-64,28.8-64,64s28.8,64,64,64h384c35.199,0,64-28.8,64-64S483.199,384,448,384z M448,192H64
	c-35.2,0-64,28.8-64,64s28.8,64,64,64h384c35.199,0,64-28.8,64-64S483.199,192,448,192z M64,128h384c35.199,0,64-28.8,64-64
	S483.199,0,448,0H64C28.8,0,0,28.8,0,64S28.8,128,64,128z"/>
</svg>
