<svg version="1.1" xmlns="http://www.w3.org/2000/svg" xmlns:xlink="http://www.w3.org/1999/xlink" viewBox="0 0 512 512">
  <path d="M410.074 336h-308.148c-20.916 0-37.926 17.94-37.926 40s17.01 40 38 40h308.148c20.916 0 37.926-17.94 37.926-40s-17.01-40-37.926-40zm0-128h-308.148c-20.916 0-37.926 17.94-37.926 40s17.01 40 38 40h308.148c20.916 0 37.926-17.94 37.926-40s-17.01-40-37.926-40zm0-128h-308.148c-20.916 0-37.926 17.94-37.926 40s17.01 40 38 40h308.148c20.916 0 37.926-17.94 37.926-40s-17.01-40-37.926-40z"/>
</svg>
