<?xml version="1.0" encoding="utf-8"?>
<!-- Generator: Adobe Illustrator 16.0.4, SVG Export Plug-In . SVG Version: 6.00 Build 0)  -->
<!DOCTYPE svg PUBLIC "-//W3C//DTD SVG 1.1//EN" "http://www.w3.org/Graphics/SVG/1.1/DTD/svg11.dtd">
<svg version="1.1" id="Layer_1" xmlns="http://www.w3.org/2000/svg" xmlns:xlink="http://www.w3.org/1999/xlink" x="0px" y="0px"
	 width="512px" height="512px" viewBox="0 0 512 512" enable-background="new 0 0 512 512" xml:space="preserve">
<path d="M424,168L208,384h-80v-80L344,88L424,168z M451,141l-80-80l28.028-28.029c9.334-9.334,24.607-9.334,33.941,0l46.059,46.059
	c9.334,9.334,9.334,24.607,0,33.941L451,141z M384,281.791V448H64V128h176l64-64H48C21.6,64,0,85.6,0,112v352c0,26.4,21.6,48,48,48
	h352c26.399,0,48-21.6,48-48V224.319L384,281.791z"/>
</svg>
