<?xml version="1.0" encoding="UTF-8"?><!DOCTYPE svg PUBLIC "-//W3C//DTD SVG 1.1//EN" "http://www.w3.org/Graphics/SVG/1.1/DTD/svg11.dtd"><svg xmlns="http://www.w3.org/2000/svg"><symbol id="arrow_down" viewBox="0 0 512 512"><path d="M37.667 155.597l218.494 217.47L475 155.597z"/></symbol><symbol id="arrow_left" viewBox="0 0 512 512"><path fill="#fff" d="M126.2 231.7l211-211.1c13.4-13.4 35.2-13.4 48.6 0 13.4 13.4 13.4 35.2 0 48.6L199.1 256l186.7 186.7c13.4 13.4 13.4 35.2 0 48.6-13.4 13.4-35.2 13.4-48.6 0l-211-211c-6.7-6.7-10.1-15.5-10.1-24.3s3.4-17.6 10.1-24.3z"/></symbol><symbol id="arrow_right" viewBox="0 0 512 512"><path fill="#fff" d="M385.8 280.3l-211 211.1c-13.4 13.4-35.2 13.4-48.6 0-13.4-13.4-13.4-35.2 0-48.6L312.9 256 126.2 69.3c-13.4-13.4-13.4-35.2 0-48.6 13.4-13.4 35.2-13.4 48.6 0l211.1 211.1c6.7 6.7 10.1 15.5 10.1 24.3-.1 8.7-3.5 17.5-10.2 24.2z"/></symbol><symbol id="bubble-dots3" viewBox="0 0 512 512"><path d="M464 32H48C21.6 32 0 53.6 0 80v256c0 26.4 21.6 48 48 48h80v128l153.6-128H464c26.4 0 48-21.6 48-48V80c0-26.4-21.6-48-48-48zM192 256h-64v-64h64v64zm96 0h-64v-64h64v64zm96 0h-64v-64h64v64z"/></symbol><symbol id="bubble-dots4" viewBox="0 0 512 512"><path d="M128 192h64v64h-64v-64zm96 0h64v64h-64v-64zm96 0h64v64h-64v-64zM464 32H48C21.6 32 0 53.6 0 80v256c0 26.4 21.6 48 48 48h80v128l153.6-128H464c26.4 0 48-21.6 48-48V80c0-26.4-21.6-48-48-48zm-16 288H258.43L160 407.357V320H64V96h384v224z"/></symbol><symbol id="bubbles2" viewBox="0 0 576 512"><path d="M240 0c132.548 0 240 86.957 240 194.224S372.548 388.448 240 388.448c-12.73 0-25.224-.81-37.417-2.355C151.03 437.44 91.497 446.647 32 448v-12.567c32.126-15.677 58-44.232 58-76.866 0-4.554-.356-9.024-1.016-13.397C34.706 309.562 0 255.175 0 194.224 0 86.957 107.452 0 240 0zm258 435.343c0 27.972 18.156 52.45 46 65.886V512c-51.563-1.16-98.894-9.05-143.57-53.062-10.57 1.324-21.397 2.02-32.43 2.02-47.735 0-91.704-12.88-126.808-34.52 72.337-.254 140.63-23.428 192.417-65.337 26.103-21.125 46.696-45.912 61.206-73.673C510.2 257.994 518 226.637 518 194.224c0-5.224-.226-10.418-.63-15.584C553.656 208.607 576 249.45 576 294.48c0 52.242-30.08 98.86-77.12 129.38-.57 3.748-.88 7.58-.88 11.483z"/></symbol><symbol id="calendar4" viewBox="0 0 512 512"><path d="M416 96h-32v64h-96V96h-96v64H96V96H64c-17.6 0-32 14.4-32 32v352c0 17.6 14.4 32 32 32h352c17.6 0 32-14.4 32-32V128c0-17.6-14.4-32-32-32zM128 480H64.057c-.02-.017-.04-.038-.057-.058V416h64v64zm0-96H64v-64h64v64zm0-96H64v-64h64v64zm96 192h-64v-64h64v64zm0-96h-64v-64h64v64zm0-96h-64v-64h64v64zm96 192h-64v-64h64v64zm0-96h-64v-64h64v64zm0-96h-64v-64h64v64zm96 191.942c-.018.02-.038.04-.06.058H352v-64h64v63.942zM416 384h-64v-64h64v64zm0-96h-64v-64h64v64zM160 64c0-8.836-7.164-16-16-16s-16 7.164-16 16v64h32V64zm192 0c0-8.836-7.164-16-16-16s-16 7.164-16 16v64h32V64z"/></symbol><symbol id="checkmark-circle-fill-green" viewBox="0 0 512 512"><path d="M256 0C114.615 0 0 114.615 0 256s114.615 256 256 256 256-114.615 256-256S397.385 0 256 0zm-48 416L102 278l47-49 59 75 185-151 23 23-208 240z"/></symbol><symbol id="checkmark-circle-fill" viewBox="0 0 512 512"><path d="M256 0C114.615 0 0 114.615 0 256s114.615 256 256 256 256-114.615 256-256S397.385 0 256 0zm-48 416L102 278l47-49 59 75 185-151 23 23-208 240z"/></symbol><symbol id="checkmark-circle-green" viewBox="0 0 512 512"><circle cx="255" cy="255" r="256"/><path fill="#fff" d="M255 487C126.1 487 23 380.4 23 255 23 123.4 136.5 23 255 23c130.5 0 232 110.5 232 232 0 119.5-107.1 232-232 232z"/><path d="M206 390.8l-106-144 38-31 68 93 172.5-187.6 33.5 34.6z"/></symbol><symbol id="checkmark-circle" viewBox="0 0 512 512"><g><circle cx="255" cy="255" r="256"/><path fill="#fff" d="M255 487C126.1 487 23 380.4 23 255 23 123.4 136.5 23 255 23c130.5 0 232 110.5 232 232 0 119.5-107.1 232-232 232z"/></g><path d="M206 390.8l-106-144 38-31 68 93 172.5-187.6 33.5 34.6z"/></symbol><symbol id="checkmark-no-circle" viewBox="0 0 512 512"><path d="M206 390.8l-106-144 38-31 68 93 172.5-187.6 33.5 34.6z"/></symbol><symbol id="clock3" viewBox="0 0 512 512"><path d="M384 224v64H224V96h64v128h96zM256 0C114.615 0 0 114.615 0 256s114.614 256 256 256c141.385 0 256-114.615 256-256S397.385 0 256 0zm0 448c-106.04 0-192-85.96-192-192S149.96 64 256 64s192 85.96 192 192-85.96 192-192 192z"/></symbol><symbol id="cu_monogram" viewBox="0 0 100 100"><path fill="#A82239" d="M73.36 56.137h-4.132V43.18h4.132c.243.905.438 1.832.58 2.776h13.054c-.093-.935-.21-1.863-.37-2.776-.81-4.672-2.48-9.047-4.844-12.958H69.23v-2.52c.536-.158 1.097-.318 1.32-.362l1.188-.24v-8.086l-.643-.442c-4.73-3.258-10.232-5.412-15.908-6.228l-1.694-.243v13.036l1.19.24c.54.108 1.074.233 1.587.374v4.472H43.314V25.75c.51-.14 1.046-.266 1.586-.375l1.19-.24V12.102l-1.69.244c-5.678.816-11.18 2.97-15.914 6.228l-.638.442V27.1l1.188.24c.222.044.78.205 1.32.363v2.52h-13.05c-2.362 3.91-4.033 8.285-4.843 12.957-.366 2.104-.557 4.27-.557 6.48 0 2.208.19 4.372.557 6.478.81 4.672 2.482 9.046 4.843 12.956h13.05v12.683l.747.428c5.662 3.25 12.124 4.97 18.692 4.97 6.563 0 13.03-1.72 18.69-4.97l.744-.428V69.093h12.55c2.362-3.91 4.032-8.284 4.845-12.956.157-.914.276-1.84.37-2.777H73.94c-.142.943-.336 1.87-.58 2.777M54.975 23.924V13.808c5.614.808 10.813 2.905 15.283 5.984v6.096c-.458.09-1.734.48-2.51.71V56.137H57.75V24.616l-1.09-.295c-.55-.15-1.114-.283-1.685-.396M56.27 43.18v12.957H43.316V43.18H56.27zM43.315 69.093H56.27v4.287c-2.114.572-4.294.866-6.477.866-2.185 0-4.365-.294-6.48-.866v-4.287zM29.327 25.888v-6.096c4.47-3.08 9.668-5.177 15.283-5.984v10.116c-.57.113-1.134.247-1.683.396l-1.093.295v5.606H31.84v-3.623c-.778-.228-2.055-.618-2.513-.71m1.03 21.66v8.59h-4.63c-.56-2.065-.865-4.235-.865-6.48 0-2.243.306-4.414.864-6.478h4.63v4.367zm37.39 33.372c-5.288 3.036-11.418 4.77-17.953 4.77-6.536 0-12.666-1.734-17.955-4.77V43.18h9.994V74.51l1.093.3c2.24.606 4.55.916 6.867.916 2.313 0 4.623-.31 6.865-.916l1.09-.3v-5.417H67.75V80.92z"/></symbol><symbol id="cu_window"/><symbol id="email" viewBox="0 0 512 512"><path d="M480 64H32C14.4 64 0 78.4 0 96v320c0 17.6 14.4 32 32 32h448c17.6 0 32-14.4 32-32V96c0-17.6-14.4-32-32-32zm-32 64v23L256 264.143 64 151v-23h384zM64 384V206.714l192 113.144 192-113.144V384H64z"/></symbol><symbol id="envelope-light-gray" viewBox="0 0 512 512"><path d="M480 64H32C14.4 64 0 78.4 0 96v320c0 17.6 14.4 32 32 32h448c17.6 0 32-14.4 32-32V96c0-17.6-14.4-32-32-32zm-32 64v23L256 264.143 64 151v-23h384zM64 384V206.714l192 113.143 192-113.143V384H64z"/></symbol><symbol id="envelope" viewBox="0 0 512 512"><path d="M480 64H32C14.4 64 0 78.4 0 96v320c0 17.6 14.4 32 32 32h448c17.6 0 32-14.4 32-32V96c0-17.6-14.4-32-32-32zm-32 64v23L256 264.143 64 151v-23h384zM64 384V206.714l192 113.143 192-113.143V384H64z"/></symbol><symbol id="eye2" viewBox="0 0 512 512"><path d="M256 112C128 112 0 224 0 256s128 144 256 144 255.996-112 256-144c-.004-32-128-144-256-144zm0 240c-53.02 0-96-42.98-96-96s42.98-96 96-96 96 42.98 96 96-42.98 96-96 96zm-32-96c0 17.674 14.326 32 32 32 17.673 0 32-14.326 32-32 0-17.673-14.327-32-32-32-17.674 0-32 14.327-32 32z"/></symbol><symbol id="facebook" viewBox="0 0 512 512"><path d="M287.935 512H192V256h-64v-88.225l64-.03-.104-51.975C191.896 43.794 211.413 0 296.196 0h70.588v88.242H322.67c-33.018 0-34.605 12.328-34.605 35.342l-.13 44.162h79.344l-9.353 88.225L288 256l-.065 256z"/></symbol><symbol id="feed2" viewBox="0 0 512 512"><path d="M68.147 375.465C30.55 375.465 0 406.132 0 443.503c0 37.577 30.55 67.9 68.147 67.9 37.733 0 68.247-30.323 68.247-67.9 0-37.37-30.512-68.038-68.247-68.038zm-68.07-201.5v98.13c63.893 0 123.98 24.985 169.23 70.255 45.192 45.16 70.14 105.52 70.14 169.65h98.563C338.008 325.59 186.368 173.965.078 173.965zM.195 0v98.178c227.892 0 413.378 185.667 413.378 413.822H512C512 229.765 282.373 0 .194 0z"/></symbol><symbol id="folder" viewBox="0 0 512 512"><path d="M0 160h512l-32 320H32L0 160zm464-64l16 32H32l32-64h176l16 32h208z"/></symbol><symbol id="globe-light-gray" viewBox="0 0 512 512"><path d="M240 32C107.452 32 0 139.452 0 272c0 132.55 107.452 240 240 240 132.55 0 240-107.45 240-240 0-132.548-107.45-240-240-240zm135.795 320c4.29-20.227 6.998-41.696 7.88-64h63.722c-1.668 22.098-6.812 43.557-15.34 64h-56.262zm-271.59-160c-4.29 20.227-6.998 41.696-7.88 64h-63.72c1.667-22.097 6.81-43.557 15.338-64h56.262zm238.813 0c4.807 20.48 7.7 41.927 8.64 64H256v-64h87.018zM256 160V66.33c7.295 2.124 14.522 5.686 21.614 10.686 13.29 9.37 26.006 23.804 36.77 41.743 7.44 12.4 13.876 26.207 19.248 41.24H256zm-90.384-41.242c10.764-17.94 23.478-32.374 36.77-41.743 7.09-5 14.32-8.562 21.614-10.685V160h-77.632c5.373-15.033 11.808-28.84 19.248-41.242zM224 192v64h-95.657c.94-22.073 3.833-43.52 8.64-64H224zM47.944 352c-8.528-20.443-13.67-41.902-15.34-64h63.723c.88 22.304 3.59 43.773 7.88 64H47.943zm80.4-64H224v64h-87.018c-4.806-20.48-7.7-41.927-8.64-64zM224 384v93.67c-7.294-2.123-14.522-5.686-21.614-10.685-13.292-9.37-26.007-23.805-36.77-41.743-7.44-12.402-13.875-26.21-19.25-41.242H224zm90.384 41.242c-10.764 17.938-23.48 32.373-36.77 41.743-7.092 5-14.32 8.562-21.614 10.685V384h77.633c-5.373 15.033-11.808 28.84-19.25 41.242zM256 352v-64h95.657c-.94 22.073-3.833 43.52-8.64 64H256zm127.674-96c-.88-22.304-3.59-43.773-7.88-64h56.263c8.528 20.443 13.672 41.903 15.34 64h-63.723zm31.655-96h-47.95c-9.32-29.38-22.19-55.147-37.66-75.714 21.27 10.17 40.53 23.808 57.358 40.636 10.74 10.74 20.18 22.47 28.25 35.078zM92.92 124.922c16.83-16.83 36.09-30.466 57.357-40.636-15.472 20.567-28.34 46.333-37.66 75.714H64.673c8.07-12.61 17.51-24.34 28.25-35.078zM64.672 384h47.95c9.32 29.38 22.187 55.147 37.658 75.715-21.268-10.17-40.53-23.808-57.357-40.637-10.74-10.74-20.182-22.47-28.25-35.078zm322.406 35.078c-16.828 16.83-36.09 30.467-57.357 40.637 15.472-20.567 28.34-46.334 37.66-75.715h47.95c-8.07 12.61-17.512 24.34-28.252 35.078z"/></symbol><symbol id="globe" viewBox="0 0 512 512"><path d="M240 32C107.452 32 0 139.452 0 272c0 132.55 107.452 240 240 240 132.55 0 240-107.45 240-240 0-132.548-107.45-240-240-240zm135.795 320c4.29-20.227 6.998-41.696 7.88-64h63.722c-1.668 22.098-6.812 43.557-15.34 64h-56.262zm-271.59-160c-4.29 20.227-6.998 41.696-7.88 64h-63.72c1.667-22.097 6.81-43.557 15.338-64h56.262zm238.813 0c4.807 20.48 7.7 41.927 8.64 64H256v-64h87.018zM256 160V66.33c7.295 2.124 14.522 5.686 21.614 10.686 13.29 9.37 26.006 23.804 36.77 41.743 7.44 12.4 13.876 26.207 19.248 41.24H256zm-90.384-41.242c10.764-17.94 23.478-32.374 36.77-41.743 7.09-5 14.32-8.562 21.614-10.685V160h-77.632c5.373-15.033 11.808-28.84 19.248-41.242zM224 192v64h-95.657c.94-22.073 3.833-43.52 8.64-64H224zM47.944 352c-8.528-20.443-13.67-41.902-15.34-64h63.723c.88 22.304 3.59 43.773 7.88 64H47.943zm80.4-64H224v64h-87.018c-4.806-20.48-7.7-41.927-8.64-64zM224 384v93.67c-7.294-2.123-14.522-5.686-21.614-10.685-13.292-9.37-26.007-23.805-36.77-41.743-7.44-12.402-13.875-26.21-19.25-41.242H224zm90.384 41.242c-10.764 17.938-23.48 32.373-36.77 41.743-7.092 5-14.32 8.562-21.614 10.685V384h77.633c-5.373 15.033-11.808 28.84-19.25 41.242zM256 352v-64h95.657c-.94 22.073-3.833 43.52-8.64 64H256zm127.674-96c-.88-22.304-3.59-43.773-7.88-64h56.263c8.528 20.443 13.672 41.903 15.34 64h-63.723zm31.655-96h-47.95c-9.32-29.38-22.19-55.147-37.66-75.714 21.27 10.17 40.53 23.808 57.358 40.636 10.74 10.74 20.18 22.47 28.25 35.078zM92.92 124.922c16.83-16.83 36.09-30.466 57.357-40.636-15.472 20.567-28.34 46.333-37.66 75.714H64.673c8.07-12.61 17.51-24.34 28.25-35.078zM64.672 384h47.95c9.32 29.38 22.187 55.147 37.658 75.715-21.268-10.17-40.53-23.808-57.357-40.637-10.74-10.74-20.182-22.47-28.25-35.078zm322.406 35.078c-16.828 16.83-36.09 30.467-57.357 40.637 15.472-20.567 28.34-46.334 37.66-75.715h47.95c-8.07 12.61-17.512 24.34-28.252 35.078z"/></symbol><symbol id="google-plus" viewBox="0 0 512 512"><path d="M279.533 32h-133.97c-60.06 0-116.586 45.503-116.586 98.21 0 53.864 40.94 97.334 102.044 97.334 4.25 0 8.38-.085 12.422-.376-3.965 7.593-6.8 16.144-6.8 25.02 0 14.97 8.05 27.106 18.233 37.013-7.693 0-15.12.225-23.227.225C57.258 289.425 0 336.805 0 385.935c0 48.39 62.77 78.657 137.167 78.657 84.812 0 131.652-48.122 131.652-96.514 0-38.8-11.448-62.036-46.844-87.067-12.107-8.57-35.265-29.417-35.265-41.67 0-14.36 4.1-21.435 25.715-38.324 22.156-17.312 37.836-41.65 37.836-69.958 0-33.703-15.01-66.55-43.185-77.386h42.477L279.532 32zM232.74 359.73c1.062 4.485 1.642 9.103 1.642 13.813 0 39.1-25.196 69.655-97.487 69.655-51.42 0-88.558-32.552-88.558-71.65 0-38.32 46.062-70.222 97.48-69.666 12 .127 23.186 2.058 33.336 5.345 27.914 19.413 47.94 30.38 53.587 52.502zm-82.33-145.842c-34.52-1.032-67.32-38.613-73.277-83.93-5.958-45.333 17.185-80.02 51.694-78.995 34.505 1.037 67.318 37.407 73.278 82.73 5.954 45.33-17.194 81.228-51.696 80.195zM416 128V32h-32v96h-96v32h96v96h32v-96h96v-32h-96z"/></symbol><symbol id="home" viewBox="0 0 512 512"><path d="M512 295.222L256 96.51 0 295.222v-81.02L256 15.492l256 198.715zM448 288v192H320V352H192v128H64V288l192-144z"/></symbol><symbol id="instagram" viewBox="0 0 512 512"><path d="M427 0H85C38.25 0 0 38.25 0 85v342c0 46.75 38.25 85 85 85h342c46.75 0 85-38.25 85-85V85c0-46.75-38.25-85-85-85zM163.9 224h184.2c3.494 10.03 5.4 20.795 5.4 32 0 53.762-43.738 97.5-97.5 97.5-53.763 0-97.5-43.738-97.5-97.5 0-11.205 1.906-21.97 5.4-32zm284.1.025V416c0 17.6-14.4 32-32 32H96c-17.6 0-32-14.4-32-32V224h50.054c-2.32 10.3-3.554 21.008-3.554 32 0 80.23 65.27 145.5 145.5 145.5S401.5 336.23 401.5 256c0-10.992-1.232-21.7-3.555-32H448v.025zM448 112c0 8.8-7.2 16-16 16h-32c-8.8 0-16-7.2-16-16V80c0-8.8 7.2-16 16-16h32c8.8 0 16 7.2 16 16v32z"/></symbol><symbol id="link-light-gray" viewBox="0 0 512 512"><path d="M160 352c8.8 8.8 23.637 8.363 32.97-.97l158.06-158.06c9.334-9.333 9.77-24.17.97-32.97s-23.638-8.363-32.972.97L160.97 319.03c-9.333 9.333-9.77 24.17-.97 32.97zm78.444-14.444c2.28 4.525 3.495 9.58 3.495 14.85 0 8.807-3.373 17.028-9.497 23.152l-81.69 81.69c-6.124 6.125-14.348 9.497-23.154 9.497s-17.03-3.372-23.155-9.496l-49.69-49.692c-6.124-6.124-9.496-14.347-9.496-23.153 0-8.808 3.37-17.03 9.495-23.154l81.69-81.69c6.124-6.123 14.348-9.496 23.154-9.496 5.268 0 10.32 1.215 14.847 3.494l32.67-32.668c-13.936-10.705-30.72-16.08-47.518-16.08-19.994 0-39.987 7.583-55.155 22.75l-81.69 81.692c-30.335 30.335-30.335 79.974 0 110.31l49.69 49.69c15.167 15.166 35.16 22.75 55.153 22.75 19.994 0 39.987-7.584 55.154-22.75l81.69-81.692c27.91-27.91 30.12-72.148 6.672-102.672l-32.67 32.668zM489.248 72.442l-49.69-49.69C424.39 7.58 404.398 0 384.404 0c-19.992 0-39.985 7.583-55.153 22.75l-81.69 81.692c-27.91 27.91-30.12 72.15-6.67 102.67l32.668-32.67c-2.28-4.524-3.494-9.58-3.494-14.846 0-8.808 3.372-17.03 9.496-23.154l81.69-81.69c6.125-6.125 14.348-9.498 23.154-9.498 8.808 0 17.03 3.373 23.154 9.497l49.69 49.692c6.124 6.124 9.496 14.347 9.496 23.154s-3.372 17.03-9.496 23.154l-81.69 81.69c-6.124 6.125-14.347 9.497-23.154 9.497-5.268 0-10.32-1.215-14.848-3.495l-32.67 32.67c13.937 10.704 30.72 16.08 47.518 16.08 19.994 0 39.987-7.585 55.154-22.753l81.69-81.69c30.336-30.334 30.336-79.973 0-110.308z"/></symbol><symbol id="link" viewBox="0 0 512 512"><path d="M160 352c8.8 8.8 23.637 8.363 32.97-.97l158.06-158.06c9.334-9.333 9.77-24.17.97-32.97s-23.638-8.363-32.972.97L160.97 319.03c-9.333 9.333-9.77 24.17-.97 32.97zm78.444-14.444c2.28 4.525 3.495 9.58 3.495 14.85 0 8.807-3.373 17.028-9.497 23.152l-81.69 81.69c-6.124 6.125-14.348 9.497-23.154 9.497s-17.03-3.372-23.155-9.496l-49.69-49.692c-6.124-6.124-9.496-14.347-9.496-23.153 0-8.808 3.37-17.03 9.495-23.154l81.69-81.69c6.124-6.123 14.348-9.496 23.154-9.496 5.268 0 10.32 1.215 14.847 3.494l32.67-32.668c-13.936-10.705-30.72-16.08-47.518-16.08-19.994 0-39.987 7.583-55.155 22.75l-81.69 81.692c-30.335 30.335-30.335 79.974 0 110.31l49.69 49.69c15.167 15.166 35.16 22.75 55.153 22.75 19.994 0 39.987-7.584 55.154-22.75l81.69-81.692c27.91-27.91 30.12-72.148 6.672-102.672l-32.67 32.668zM489.248 72.442l-49.69-49.69C424.39 7.58 404.398 0 384.404 0c-19.992 0-39.985 7.583-55.153 22.75l-81.69 81.692c-27.91 27.91-30.12 72.15-6.67 102.67l32.668-32.67c-2.28-4.524-3.494-9.58-3.494-14.846 0-8.808 3.372-17.03 9.496-23.154l81.69-81.69c6.125-6.125 14.348-9.498 23.154-9.498 8.808 0 17.03 3.373 23.154 9.497l49.69 49.692c6.124 6.124 9.496 14.347 9.496 23.154s-3.372 17.03-9.496 23.154l-81.69 81.69c-6.124 6.125-14.347 9.497-23.154 9.497-5.268 0-10.32-1.215-14.848-3.495l-32.67 32.67c13.937 10.704 30.72 16.08 47.518 16.08 19.994 0 39.987-7.585 55.154-22.753l81.69-81.69c30.336-30.334 30.336-79.973 0-110.308z"/></symbol><symbol id="location" viewBox="0 0 512 512"><path d="M256 0C167.634 0 96 71.634 96 160c0 160 160 352 160 352s160-192 160-352C416 71.634 344.365 0 256 0zm0 256c-53.02 0-96-42.98-96-96s42.98-96 96-96 96 42.98 96 96-42.98 96-96 96z"/></symbol><symbol id="lock-light-gray" viewBox="0 0 512 512"><path d="M416 224h-32v-96C384 57.308 326.692 0 256 0c-70.692 0-128 57.308-128 128v96H96c-17.6 0-32 14.4-32 32v224c0 17.6 14.4 32 32 32h320c17.6 0 32-14.4 32-32V256c0-17.6-14.4-32-32-32zM256 416c-17.673 0-32-14.327-32-32s14.327-32 32-32 32 14.327 32 32-14.327 32-32 32zm64-192H192v-96c0-35.29 28.71-64 64-64s64 28.71 64 64v96z"/></symbol><symbol id="lock" viewBox="0 0 512 512"><path d="M416 224h-32v-96C384 57.308 326.692 0 256 0c-70.692 0-128 57.308-128 128v96H96c-17.6 0-32 14.4-32 32v224c0 17.6 14.4 32 32 32h320c17.6 0 32-14.4 32-32V256c0-17.6-14.4-32-32-32zM256 416c-17.673 0-32-14.327-32-32s14.327-32 32-32 32 14.327 32 32-14.327 32-32 32zm64-192H192v-96c0-35.29 28.71-64 64-64s64 28.71 64 64v96z"/></symbol><symbol id="menu" viewBox="0 0 512 512"><path d="M410.074 336H101.926C81.01 336 64 353.94 64 376s17.01 40 38 40h308.148c20.916 0 37.926-17.94 37.926-40s-17.01-40-37.926-40zm0-128H101.926C81.01 208 64 225.94 64 248s17.01 40 38 40h308.148c20.916 0 37.926-17.94 37.926-40s-17.01-40-37.926-40zm0-128H101.926C81.01 80 64 97.94 64 120s17.01 40 38 40h308.148c20.916 0 37.926-17.94 37.926-40s-17.01-40-37.926-40z"/></symbol><symbol id="menu10" viewBox="0 0 512 512"><path d="M384 224L256 96 128 224h256zm-256 96l128 128 128-128H128z"/></symbol><symbol id="menu3" viewBox="0 0 512 512"><path d="M448 384H64c-35.2 0-64 28.8-64 64s28.8 64 64 64h384c35.2 0 64-28.8 64-64s-28.8-64-64-64zm0-192H64c-35.2 0-64 28.8-64 64s28.8 64 64 64h384c35.2 0 64-28.8 64-64s-28.8-64-64-64zM64 128h384c35.2 0 64-28.8 64-64S483.2 0 448 0H64C28.8 0 0 28.8 0 64s28.8 64 64 64z"/></symbol><symbol id="newspaper" viewBox="0 0 512 512"><path d="M448 128V64H0v352c0 17.673 14.327 32 32 32h432c26.51 0 48-21.49 48-48V128h-64zm-32 288H32V96h384v320zM64 160h320v32H64v-32zm192 64h128v32H256v-32zm0 64h128v32H256v-32zm0 64h96v32h-96v-32zM64 224h160v160H64V224z"/></symbol><symbol id="pencil5" viewBox="0 0 512 512"><path d="M424 168L208 384h-80v-80L344 88l80 80zm27-27l-80-80 28.028-28.03c9.334-9.333 24.607-9.333 33.94 0l46.06 46.06c9.334 9.334 9.334 24.607 0 33.94L451 141zm-67 140.79V448H64V128h176l64-64H48C21.6 64 0 85.6 0 112v352c0 26.4 21.6 48 48 48h352c26.4 0 48-21.6 48-48V224.32l-64 57.47z"/></symbol><symbol id="phone-light-gray" viewBox="0 0 512 512"><path d="M321.788 371.146c-11.188 6.236-20.175 2.064-32.764-4.572-11.46-8.748-45.402-35.438-81.226-71.188-26.156-33.084-46.162-64.288-55.375-79.293-.625-1.66-.944-2.632-.944-2.632-5.398-13.475-8.772-22.92-1.325-33.52 6.854-9.727 9.5-12.383 18.24-20.108L80.605 29.708C70 37.436 53.587 54.814 40.095 74.086 27.56 92.403 16.943 112.673 14.048 127.14 29.342 182.26 66.305 285.038 134.63 358.467l-.02.308C200.34 439.802 304.773 490.204 360.18 512c14.68-1.385 35.938-9.844 55.456-20.404 20.598-11.415 39.567-25.945 48.33-35.685l-120.29-100.828c-8.596 7.91-11.497 10.254-21.888 16.064zM205.61 128.658c7.24-5.302 5.313-14.944 1.926-20.245L140.956 6.5c-4.343-5.29-13.395-8.064-21.25-5.58L92.27 19.303l88.034 129.88 25.304-20.524zm287.34 269.188l-94.474-76.788c-4.93-3.918-14.313-6.838-20.325-.188l-23.045 23.05 120.047 101.015 21.136-25.357c3.285-7.564 1.467-16.857-3.34-21.732z"/></symbol><symbol id="phone" viewBox="0 0 512 512"><path d="M321.788 371.146c-11.188 6.236-20.175 2.064-32.764-4.572-11.46-8.748-45.402-35.438-81.226-71.188-26.156-33.084-46.162-64.288-55.375-79.293-.625-1.66-.944-2.632-.944-2.632-5.398-13.475-8.772-22.92-1.325-33.52 6.854-9.727 9.5-12.383 18.24-20.108L80.605 29.708C70 37.436 53.587 54.814 40.095 74.086 27.56 92.403 16.943 112.673 14.048 127.14 29.342 182.26 66.305 285.038 134.63 358.467l-.02.308C200.34 439.802 304.773 490.204 360.18 512c14.68-1.385 35.938-9.844 55.456-20.404 20.598-11.415 39.567-25.945 48.33-35.685l-120.29-100.828c-8.596 7.91-11.497 10.254-21.888 16.064zM205.61 128.658c7.24-5.302 5.313-14.944 1.926-20.245L140.956 6.5c-4.343-5.29-13.395-8.064-21.25-5.58L92.27 19.303l88.034 129.88 25.304-20.524zm287.34 269.188l-94.474-76.788c-4.93-3.918-14.313-6.838-20.325-.188l-23.045 23.05 120.047 101.015 21.136-25.357c3.285-7.564 1.467-16.857-3.34-21.732z"/></symbol><symbol id="pinterest" viewBox="0 0 512 512"><path d="M256 0C114.615 0 0 114.615 0 256s114.612 256 256 256c141.385 0 256-114.615 256-256S397.385 0 256 0zm24.822 342.06c-23.26-1.808-33.02-13.328-51.252-24.404-10.03 52.587-22.282 103.007-58.57 129.342-11.202-79.484 16.446-139.182 29.285-202.557-21.893-36.852 2.635-111.016 48.81-92.736 56.813 22.474-49.2 137.004 21.966 151.308 74.312 14.935 104.646-128.93 58.572-175.712-66.58-67.553-193.8-1.54-178.155 95.178 3.808 23.646 28.236 30.82 9.762 63.45-42.61-9.445-55.325-43.05-53.69-87.855 2.635-73.337 65.893-124.682 129.344-131.783 80.242-8.982 155.553 29.454 165.953 104.938 11.706 85.195-36.224 177.465-122.025 170.83z"/></symbol><symbol id="play3" viewBox="0 0 512 512"><path d="M256 0C114.615 0 0 114.615 0 256s114.614 256 256 256c141.385 0 256-114.615 256-256S397.385 0 256 0zm0 464c-114.875 0-208-93.125-208-208S141.125 48 256 48s208 93.125 208 208-93.125 208-208 208zm-64-320l192 112-192 112V144z"/></symbol><symbol id="plus-circle2" viewBox="0 0 512 512"><path fill="#fff" d="M82.047 68.182H430.72v374.923H82.046z"/><circle cx="256" cy="256" r="256"/><path fill="#fff" d="M369.906 225.625h-83.53v-83.53c0-4.19-3.403-7.594-7.594-7.594H233.22c-4.19 0-7.594 3.405-7.594 7.595v83.53h-83.53c-4.19 0-7.594 3.404-7.594 7.594v45.56c0 4.19 3.404 7.595 7.594 7.595h83.53v83.53c0 4.19 3.403 7.594 7.594 7.594h45.562c4.19 0 7.594-3.404 7.594-7.595v-83.53h83.53c4.19 0 7.594-3.404 7.594-7.594v-45.56c0-4.19-3.404-7.595-7.594-7.595z"/></symbol><symbol id="search3" viewBox="0 0 760.5 512"><path d="M496.13 435.698L374.856 332.55c-12.537-11.282-25.943-16.462-36.774-15.962C366.708 283.055 384 239.548 384 192 384 85.96 298.04 0 192 0 85.962 0 0 85.96 0 192s85.96 192 192 192c47.55 0 91.054-17.293 124.588-45.922-.5 10.83 4.68 24.24 15.963 36.774L435.7 496.13c17.66 19.623 46.513 21.277 64.11 3.678 17.598-17.6 15.946-46.45-3.677-64.11zM192 320c-70.692 0-128-57.31-128-128 0-70.692 57.308-128 128-128 70.69 0 128 57.308 128 128 0 70.69-57.307 128-128 128z"/></symbol><symbol id="share" viewBox="0 0 512 512"><path d="M128 320s29.412-96 192-96v96l192-128L320 64v96c-128 0-192 79.836-192 160zm224 64H64V192h62.938c5.047-5.96 10.456-11.667 16.244-17.09 21.982-20.595 48.28-36.326 78.057-46.91H0v320h416V313.688l-64 42.668V384z"/></symbol><symbol id="tag5" viewBox="0 0 512 512"><path d="M463.906 0h-144.28c-26.453 0-63.398 15.303-82.103 34.007L14.028 257.502c-18.703 18.704-18.703 49.312 0 68.016L186.483 497.97c18.704 18.706 49.312 18.706 68.016 0l223.493-223.493C496.697 255.772 512 218.827 512 192.375V48.095C512 21.64 490.357 0 463.906 0zM400 160c-26.51 0-48-21.49-48-48s21.49-48 48-48 48 21.49 48 48-21.49 48-48 48z"/></symbol><symbol id="twitter" viewBox="0 0 512 512"><path d="M512 97.21c-18.84 8.353-39.082 14-60.33 16.54 21.686-13 38.343-33.586 46.186-58.116-20.298 12.04-42.778 20.78-66.705 25.49-19.16-20.415-46.46-33.17-76.672-33.17-58.01 0-105.044 47.03-105.044 105.04 0 8.232.93 16.25 2.72 23.938-87.3-4.382-164.7-46.2-216.51-109.753-9.04 15.513-14.222 33.557-14.222 52.808 0 36.444 18.544 68.596 46.73 87.433-17.22-.545-33.417-5.27-47.577-13.138-.01.438-.01.878-.01 1.32 0 50.895 36.208 93.35 84.26 103-8.812 2.4-18.094 3.687-27.674 3.687-6.768 0-13.348-.66-19.763-1.888 13.368 41.73 52.16 72.104 98.126 72.948-35.95 28.176-81.243 44.968-130.458 44.968-8.48 0-16.84-.497-25.058-1.47 46.485 29.805 101.7 47.196 161.02 47.196 193.212 0 298.87-160.062 298.87-298.872 0-4.554-.105-9.084-.306-13.59 20.53-14.81 38.338-33.31 52.42-54.373z"/></symbol><symbol id="user-light-gray" viewBox="0 0 512 512"><path d="M311.413 351.368c-11.056-1.76-11.308-32.157-11.308-32.157s32.484-32.157 39.564-75.4c19.044 0 30.808-45.973 11.76-62.148C352.226 164.635 375.91 48 256 48s-96.226 116.635-95.433 133.662c-19.047 16.175-7.284 62.148 11.762 62.148 7.078 43.243 39.562 75.4 39.562 75.4s-.252 30.4-11.307 32.158C164.975 357.034 32 415.685 32 480h448c0-64.315-132.976-122.966-168.587-128.632z"/></symbol><symbol id="user" viewBox="0 0 512 512"><path d="M311.413 351.368c-11.056-1.76-11.308-32.157-11.308-32.157s32.484-32.157 39.564-75.4c19.044 0 30.808-45.973 11.76-62.148C352.226 164.635 375.91 48 256 48s-96.226 116.635-95.433 133.662c-19.047 16.175-7.284 62.148 11.762 62.148 7.078 43.243 39.562 75.4 39.562 75.4s-.252 30.4-11.307 32.158C164.975 357.034 32 415.685 32 480h448c0-64.315-132.976-122.966-168.587-128.632z"/></symbol><symbol id="vimeo" viewBox="0 0 512 512"><path d="M0 154.185l20.797 27.272s42.885-33.804 57.18-16.9c14.294 16.9 68.868 220.977 87.085 258.622 15.9 33.015 59.76 76.66 107.857 45.49 48.066-31.17 207.92-167.643 236.53-328.808C538.043-21.25 317.093 12.5 293.687 152.867c58.495-35.118 89.718 14.27 59.785 70.186-29.878 55.862-57.18 92.296-71.475 92.296-14.27 0-25.245-37.385-41.595-102.724-16.898-67.55-16.796-189.23-87.058-175.435C87.085 50.198 0 154.186 0 154.186z"/></symbol><symbol id="warning-fill-orange" viewBox="0 0 512 512"><path d="M504.978 457.88L286.44 22.324C278.07 7.44 267.036 0 256 0s-22.07 7.44-30.442 22.324L7.02 457.88C-9.72 487.646 4.52 512 38.674 512h434.654c34.15 0 48.396-24.354 31.65-54.12zM256 448c-17.673 0-32-14.327-32-32 0-17.674 14.327-32 32-32 17.674 0 32 14.326 32 32 0 17.673-14.326 32-32 32zm22-96h-44l-10-128c0-17.673 14.327-32 32-32s32 14.327 32 32l-10 128z"/></symbol><symbol id="warning" viewBox="0 0 512 512"><g class="svgGrid" stroke="#B35047"><path d="M32 0v512M64 0v512M96 0v512M128 0v512M160 0v512M192 0v512M224 0v512M256 0v512M288 0v512M320 0v512M352 0v512M384 0v512M416 0v512M448 0v512M480 0v512M0 32h512M0 64h512M0 96h512M0 128h512M0 160h512M0 192h512M0 224h512M0 256h512M0 288h512M0 320h512M0 352h512M0 384h512M0 416h512M0 448h512M0 480h512"/><path fill="none" d="M0 0h512v512H0z"/></g><path d="M256 79.362L83.583 448h344.834L256 79.362zM256 0c11.035 0 22.07 7.44 30.442 22.324L504.978 457.88c16.745 29.766 2.5 54.12-31.65 54.12H38.672C4.52 512-9.722 487.646 7.02 457.88L225.56 22.324C233.93 7.44 244.965 0 256 0zm-32 384a32 32 2160 1 0 64 0 32 32 2160 1 0-64 0zm32-192c17.673 0 32 14.327 32 32l-10 96h-44l-10-96c0-17.673 14.327-32 32-32z"/></symbol><symbol id="wordpress" viewBox="0 0 512 512"><path d="M64 255.996c0 74.013 44.16 137.984 108.215 168.29l-91.59-244.393C69.973 203.147 64 228.883 64 255.996zm321.614-9.432c0-23.117-8.526-39.118-15.826-51.57-9.73-15.41-18.86-28.448-18.86-43.86 0-17.186 13.383-33.187 32.243-33.187.853 0 1.66.102 2.49.15C351.5 87.614 305.987 69 256.003 69c-67.08 0-126.093 33.523-160.422 84.284 4.505.14 8.753.227 12.355.227 20.077 0 51.17-2.375 51.17-2.375 10.346-.59 11.566 14.217 1.23 15.41 0 0-10.406 1.185-21.978 1.776l69.916 202.554L250.3 248.146l-29.91-79.825c-10.345-.59-20.14-1.774-20.14-1.774-10.352-.596-9.136-16 1.22-15.41 0 0 31.7 2.375 50.566 2.375 20.072 0 51.175-2.375 51.175-2.375 10.352-.59 11.57 14.217 1.224 15.41 0 0-10.417 1.187-21.974 1.776l69.39 201.01 19.156-62.316c8.29-25.875 14.608-44.45 14.608-60.45zM259.37 272.352l-57.612 163.03c17.208 4.928 35.396 7.618 54.244 7.618 22.357 0 43.802-3.76 63.76-10.6-.51-.802-.988-1.652-1.376-2.577l-59.015-157.47zm165.11-106.066c.827 5.955 1.295 12.343 1.295 19.23 0 18.964-3.646 40.297-14.6 66.974L352.53 417.626c57.082-32.414 95.47-92.644 95.47-161.63 0-32.514-8.53-63.08-23.52-89.71zM256 0C114.615 0 0 114.615 0 256s114.614 256 256 256c141.385 0 256-114.615 256-256S397.385 0 256 0zm0 480C132.288 480 32 379.712 32 256S132.288 32 256 32s224 100.288 224 224-100.288 224-224 224z"/></symbol><symbol id="x-mark-circle" viewBox="0 0 512 512"><g><circle cx="255" cy="255" r="256"/><path fill="#fff" d="M255 487C126.1 487 23 380.4 23 255 23 123.4 136.5 23 255 23c130.5 0 232 110.5 232 232 0 119.5-107.1 232-232 232z"/></g><path d="M310.7 256l82-82c12-12 12-31.7 0-43.8l-10.9-10.9c-12-12-31.7-12-43.8 0l-82 82-82-82c-12-12-31.7-12-43.7 0l-10.9 10.9c-12 12-12 31.7 0 43.8l82 82-82 82c-12 12-12 31.7 0 43.7l10.9 10.9c12 12 31.7 12 43.7 0l82-82 82 82c12 12 31.7 12 43.8 0l10.9-10.9c12-12 12-31.7 0-43.7l-82-82z"/></symbol><symbol id="x-mark-no-circle" viewBox="0 0 512 512"><path d="M310.7 256l82-82c12-12 12-31.7 0-43.8l-10.9-10.9c-12-12-31.7-12-43.8 0l-82 82-82-82c-12-12-31.7-12-43.7 0l-10.9 10.9c-12 12-12 31.7 0 43.8l82 82-82 82c-12 12-12 31.7 0 43.7l10.9 10.9c12 12 31.7 12 43.7 0l82-82 82 82c12 12 31.7 12 43.8 0l10.9-10.9c12-12 12-31.7 0-43.7l-82-82z"/></symbol><symbol id="youtube" viewBox="0 0 512 512"><path d="M416 64H96c-52.8 0-96 43.2-96 96v192c0 52.8 43.2 96 96 96h320c52.8 0 96-43.2 96-96V160c0-52.8-43.2-96-96-96zM192 384V128l160 128-160 128z"/></symbol></svg>