<?xml version="1.0" encoding="utf-8"?>
<!-- Generator: Adobe Illustrator 16.0.4, SVG Export Plug-In . SVG Version: 6.00 Build 0)  -->
<!DOCTYPE svg PUBLIC "-//W3C//DTD SVG 1.1//EN" "http://www.w3.org/Graphics/SVG/1.1/DTD/svg11.dtd">
<svg version="1.1" id="Layer_1" xmlns="http://www.w3.org/2000/svg" xmlns:xlink="http://www.w3.org/1999/xlink" x="0px" y="0px"
	 width="512px" height="512px" viewBox="0 0 512 512" enable-background="new 0 0 512 512" xml:space="preserve">
<path d="M256,112C128,112,0.001,223.999,0,256l0,0c0.001,32.001,128,144,256,144s255.996-111.999,256-144l0,0
	C511.996,223.999,384,112,256,112z M256,352c-53.021,0-96-42.98-96-96c0-53.02,42.979-96,96-96c53.02,0,96,42.98,96,96
	C352,309.02,309.02,352,256,352z M224,256c0,17.674,14.326,32,32,32c17.673,0,32-14.326,32-32c0-17.673-14.327-32-32-32
	C238.326,224,224,238.327,224,256z"/>
</svg>
