<?xml version="1.0" encoding="utf-8"?>
<!-- Generator: Adobe Illustrator 16.0.4, SVG Export Plug-In . SVG Version: 6.00 Build 0)  -->
<!DOCTYPE svg PUBLIC "-//W3C//DTD SVG 1.1//EN" "http://www.w3.org/Graphics/SVG/1.1/DTD/svg11.dtd">
<svg version="1.1" id="Layer_1" xmlns="http://www.w3.org/2000/svg" xmlns:xlink="http://www.w3.org/1999/xlink" x="0px" y="0px"
	 width="512px" height="512px" viewBox="0 0 512 512" enable-background="new 0 0 512 512" xml:space="preserve">
<path d="M427,0H85C38.25,0,0,38.25,0,85v342c0,46.75,38.25,85,85,85h342c46.75,0,85-38.25,85-85V85C512,38.25,473.75,0,427,0z
	 M163.9,224h184.2c3.494,10.029,5.4,20.795,5.4,32c0,53.762-43.738,97.5-97.5,97.5c-53.763,0-97.5-43.738-97.5-97.5
	C158.5,244.795,160.406,234.029,163.9,224z M448,224.025V352v64c0,17.6-14.4,32-32,32H96c-17.601,0-32-14.4-32-32v-64V224.025V224
	h50.054c-2.321,10.301-3.554,21.008-3.554,32c0,80.229,65.271,145.5,145.5,145.5c80.229,0,145.5-65.271,145.5-145.5
	c0-10.992-1.232-21.699-3.555-32H448V224.025z M448,112c0,8.8-7.2,16-16,16h-32c-8.8,0-16-7.2-16-16V80c0-8.8,7.2-16,16-16h32
	c8.8,0,16,7.2,16,16V112z"/>
</svg>
