<?xml version="1.0" encoding="utf-8"?>
<!-- Generator: Adobe Illustrator 16.0.4, SVG Export Plug-In . SVG Version: 6.00 Build 0)  -->
<!DOCTYPE svg PUBLIC "-//W3C//DTD SVG 1.1//EN" "http://www.w3.org/Graphics/SVG/1.1/DTD/svg11.dtd">
<svg version="1.1" id="Layer_1" xmlns="http://www.w3.org/2000/svg" xmlns:xlink="http://www.w3.org/1999/xlink" x="0px" y="0px"
	 width="576px" height="512px" viewBox="0 0 576 512" enable-background="new 0 0 576 512" xml:space="preserve">
<path d="M240,0L240,0c132.548,0,240,86.957,240,194.224S372.548,388.448,240,388.448c-12.729,0-25.224-0.811-37.417-2.355
	C151.03,437.44,91.497,446.647,32,448v-12.567c32.126-15.677,58-44.232,58-76.866c0-4.554-0.356-9.024-1.016-13.397
	C34.706,309.562,0,255.175,0,194.224C0,86.957,107.452,0,240,0z M498,435.343c0,27.972,18.156,52.449,46,65.886V512
	c-51.563-1.159-98.894-9.051-143.571-53.062c-10.57,1.324-21.396,2.02-32.429,2.02c-47.735,0-91.704-12.879-126.808-34.52
	c72.337-0.254,140.63-23.428,192.417-65.337c26.104-21.126,46.697-45.913,61.207-73.674C510.199,257.994,518,226.636,518,194.224
	c0-5.224-0.226-10.418-0.63-15.584C553.656,208.607,576,249.451,576,294.479c0,52.243-30.079,98.86-77.12,129.382
	C498.309,427.608,498,431.44,498,435.343z"/>
</svg>
