<?xml version="1.0" encoding="utf-8"?>
<!-- Generator: Adobe Illustrator 16.0.4, SVG Export Plug-In . SVG Version: 6.00 Build 0)  -->
<!DOCTYPE svg PUBLIC "-//W3C//DTD SVG 1.1//EN" "http://www.w3.org/Graphics/SVG/1.1/DTD/svg11.dtd">
<svg version="1.1" id="Layer_1" xmlns="http://www.w3.org/2000/svg" xmlns:xlink="http://www.w3.org/1999/xlink" x="0px" y="0px"
	 width="512px" height="512px" viewBox="0 0 512 512" enable-background="new 0 0 512 512" xml:space="preserve">
<path d="M256,0C114.615,0,0,114.615,0,256s114.612,256,256,256c141.385,0,256-114.615,256-256S397.385,0,256,0z M280.822,342.059
	c-23.26-1.807-33.021-13.327-51.252-24.403C219.54,370.243,207.288,420.663,171,446.998
	c-11.202-79.484,16.446-139.182,29.285-202.557c-21.893-36.853,2.635-111.017,48.81-92.737
	c56.813,22.474-49.2,137.004,21.966,151.308c74.311,14.935,104.645-128.929,58.571-175.712
	c-66.579-67.553-193.799-1.54-178.155,95.178c3.808,23.646,28.236,30.819,9.762,63.451c-42.609-9.446-55.324-43.051-53.688-87.856
	c2.634-73.337,65.892-124.682,129.343-131.783c80.242-8.982,155.553,29.454,165.953,104.938
	C414.553,256.423,366.623,348.693,280.822,342.059z"/>
</svg>
