<?xml version="1.0" encoding="utf-8"?>
<!-- Generator: Adobe Illustrator 16.0.4, SVG Export Plug-In . SVG Version: 6.00 Build 0)  -->
<!DOCTYPE svg PUBLIC "-//W3C//DTD SVG 1.1//EN" "http://www.w3.org/Graphics/SVG/1.1/DTD/svg11.dtd">
<svg version="1.1" id="Layer_1" xmlns="http://www.w3.org/2000/svg" xmlns:xlink="http://www.w3.org/1999/xlink" x="0px" y="0px"
	 width="512px" height="512px" viewBox="0 0 512 512" enable-background="new 0 0 512 512" xml:space="preserve">
<path d="M128,192h64v64h-64V192z M224,192h64v64h-64V192z M320,192h64v64h-64V192z M464,32H48C21.6,32,0,53.6,0,80v256
	c0,26.4,21.6,48,48,48h80v128l153.6-128H464c26.399,0,48-21.6,48-48V80C512,53.6,490.4,32,464,32z M448,320H258.429L160,407.357V320
	H64V96h384V320z"/>
</svg>
