<?xml version="1.0" encoding="utf-8"?>
<!-- Generator: Adobe Illustrator 16.0.4, SVG Export Plug-In . SVG Version: 6.00 Build 0)  -->
<!DOCTYPE svg PUBLIC "-//W3C//DTD SVG 1.1//EN" "http://www.w3.org/Graphics/SVG/1.1/DTD/svg11.dtd">
<svg version="1.1" id="Layer_1" xmlns="http://www.w3.org/2000/svg" xmlns:xlink="http://www.w3.org/1999/xlink" x="0px" y="0px"
	 width="512px" height="512px" viewBox="0 0 512 512" enable-background="new 0 0 512 512" xml:space="preserve">
<path d="M416,96h-32v64h-96V96h-96v64H96V96H64c-17.601,0-32,14.4-32,32v352c0,17.6,14.399,32,32,32h352c17.6,0,32-14.4,32-32V128
	C448,110.4,433.6,96,416,96z M128,480H64.057c-0.02-0.017-0.041-0.038-0.057-0.058V416h64V480z M128,384H64v-64h64V384z M128,288H64
	v-64h64V288z M224,480h-64v-64h64V480z M224,384h-64v-64h64V384z M224,288h-64v-64h64V288z M320,480h-64v-64h64V480z M320,384h-64
	v-64h64V384z M320,288h-64v-64h64V288z M416,479.942c-0.018,0.02-0.038,0.041-0.059,0.058H352v-64h64V479.942z M416,384h-64v-64h64
	V384z M416,288h-64v-64h64V288z M160,64c0-8.836-7.164-16-16-16s-16,7.164-16,16v64h32V64z M352,64c0-8.836-7.164-16-16-16
	s-16,7.164-16,16v64h32V64z"/>
</svg>
