<?xml version="1.0" encoding="utf-8"?>
<svg version="1.1" id="Layer_1" xmlns="http://www.w3.org/2000/svg" xmlns:xlink="http://www.w3.org/1999/xlink" viewBox="0 0 512 512" fill="#353430">
<path d="M160,352c8.8,8.8,23.637,8.363,32.971-0.971L351.03,192.971C360.364,183.637,360.8,168.8,352,160
	s-23.638-8.363-32.972,0.971L160.971,319.029C151.637,328.363,151.2,343.2,160,352z M238.444,337.556
	c2.28,4.525,3.495,9.58,3.495,14.849c0,8.808-3.372,17.029-9.496,23.153l-81.69,81.691c-6.124,6.124-14.348,9.496-23.154,9.496
	s-17.03-3.372-23.154-9.496l-49.69-49.691c-6.124-6.124-9.496-14.347-9.496-23.153c0-8.808,3.372-17.03,9.496-23.154l81.69-81.691
	c6.124-6.123,14.348-9.496,23.154-9.496c5.269,0,10.322,1.215,14.848,3.494l32.669-32.668c-13.935-10.705-30.72-16.08-47.517-16.08
	c-19.993,0-39.986,7.583-55.154,22.751l-81.69,81.691c-30.335,30.335-30.335,79.974,0,110.309l49.69,49.691
	c15.167,15.166,35.16,22.75,55.153,22.75c19.994,0,39.987-7.584,55.154-22.751l81.69-81.691
	c27.91-27.909,30.119-72.148,6.672-102.672L238.444,337.556z M489.248,72.442l-49.69-49.691C424.391,7.583,404.398,0,384.404,0
	c-19.992,0-39.985,7.583-55.153,22.751l-81.691,81.691c-27.91,27.91-30.119,72.149-6.671,102.671l32.669-32.67
	c-2.279-4.525-3.494-9.58-3.494-14.847c0-8.808,3.372-17.03,9.496-23.154l81.691-81.691c6.124-6.124,14.347-9.497,23.153-9.497
	c8.808,0,17.03,3.373,23.154,9.497l49.69,49.691c6.124,6.124,9.496,14.347,9.496,23.154c0,8.807-3.372,17.03-9.496,23.154
	l-81.69,81.691c-6.124,6.124-14.347,9.496-23.154,9.496c-5.268,0-10.321-1.215-14.848-3.495l-32.669,32.669
	c13.936,10.705,30.72,16.08,47.517,16.08c19.994,0,39.987-7.584,55.154-22.752l81.69-81.69
	C519.584,152.416,519.584,102.777,489.248,72.442z"/>
</svg>
