<?xml version="1.0" encoding="utf-8"?>
<!-- Generator: Adobe Illustrator 16.0.4, SVG Export Plug-In . SVG Version: 6.00 Build 0)  -->
<!DOCTYPE svg PUBLIC "-//W3C//DTD SVG 1.1//EN" "http://www.w3.org/Graphics/SVG/1.1/DTD/svg11.dtd">
<svg version="1.1" id="Layer_1" xmlns="http://www.w3.org/2000/svg" xmlns:xlink="http://www.w3.org/1999/xlink" x="0px" y="0px"
	 width="512px" height="512px" viewBox="0 0 512 512" enable-background="new 0 0 512 512" xml:space="preserve">
<path d="M448,128V64H0v352c0,17.673,14.327,32,32,32h432c26.511,0,48-21.489,48-48V128H448z M416,416H32V96h384V416z M64,160h320v32
	H64V160z M256,224h128v32H256V224z M256,288h128v32H256V288z M256,352h96v32h-96V352z M64,224h160v160H64V224z"/>
</svg>
