<?xml version="1.0" encoding="utf-8"?>
<!-- Generator: Adobe Illustrator 16.0.4, SVG Export Plug-In . SVG Version: 6.00 Build 0)  -->
<!DOCTYPE svg PUBLIC "-//W3C//DTD SVG 1.1//EN" "http://www.w3.org/Graphics/SVG/1.1/DTD/svg11.dtd">
<svg version="1.1" id="Layer_1" xmlns="http://www.w3.org/2000/svg" xmlns:xlink="http://www.w3.org/1999/xlink" x="0px" y="0px"
	 width="512px" height="512px" viewBox="0 0 512 512" enable-background="new 0 0 512 512" xml:space="preserve">
<rect x="82.047" y="68.182" fill="#FFFFFF" width="348.672" height="374.923"/>
<circle cx="256" cy="256" r="256"/>
<path fill="#FFFFFF" d="M369.906,225.625h-83.53v-83.53c0-4.19-3.403-7.594-7.594-7.594h-45.562c-4.191,0-7.594,3.404-7.594,7.594
	v83.53h-83.53c-4.19,0-7.594,3.404-7.594,7.594v45.562c0,4.189,3.404,7.594,7.594,7.594h83.53v83.53c0,4.19,3.403,7.594,7.594,7.594
	h45.562c4.19,0,7.594-3.403,7.594-7.594v-83.53h83.53c4.19,0,7.594-3.404,7.594-7.594v-45.562
	C377.499,229.029,374.096,225.625,369.906,225.625z"/>
</svg>
