<?xml version="1.0" encoding="utf-8"?>
<!-- Generator: Adobe Illustrator 16.0.4, SVG Export Plug-In . SVG Version: 6.00 Build 0)  -->
<!DOCTYPE svg PUBLIC "-//W3C//DTD SVG 1.1//EN" "http://www.w3.org/Graphics/SVG/1.1/DTD/svg11.dtd">
<svg version="1.1" id="Layer_1" xmlns="http://www.w3.org/2000/svg" xmlns:xlink="http://www.w3.org/1999/xlink" x="0px" y="0px"
	 width="512px" height="512px" viewBox="0 0 512 512" enable-background="new 0 0 512 512" xml:space="preserve">
<path d="M0,154.185l20.797,27.272c0,0,42.885-33.804,57.18-16.901c14.294,16.901,68.868,220.978,87.085,258.623
	c15.9,33.016,59.759,76.66,107.857,45.491c48.067-31.17,207.92-167.643,236.532-328.808
	c28.591-161.113-192.359-127.363-215.765,13.005c58.495-35.118,89.718,14.269,59.785,70.186
	c-29.879,55.862-57.18,92.296-71.476,92.296c-14.27,0-25.245-37.384-41.595-102.723c-16.898-67.551-16.796-189.23-87.058-175.435
	C87.085,50.197,0,154.185,0,154.185z"/>
</svg>
