<?xml version="1.0" encoding="utf-8" ?>
<svg viewBox="0 0 512 512" xmlns="http://www.w3.org/2000/svg" xmlns:xlink="http://www.w3.org/1999/xlink" fill="#cc6700">
    <path d="M 504.978,457.88L 286.441,22.324C 278.07,7.441, 267.035,0.00, 256.00,0.00s-22.07,7.441-30.442,22.324L 7.021,457.88 C-9.722,487.646, 4.521,512.00, 38.673,512.00l 434.654,0.00 C 507.478,512.00, 521.723,487.646, 504.978,457.88z M 256.00,448.00c-17.673,0.00-32.00-14.327-32.00-32.00 c0.00-17.674, 14.327-32.00, 32.00-32.00c 17.674,0.00, 32.00,14.326, 32.00,32.00C 288.00,433.673, 273.674,448.00, 256.00,448.00z M 278.00,352.00l-44.00,0.00 l-10.00-128.00 c0.00-17.673, 14.327-32.00, 32.00-32.00s 32.00,14.327, 32.00,32.00L 278.00,352.00z"></path>
</svg>
