<?xml version="1.0" encoding="utf-8"?>
<!-- Generator: Adobe Illustrator 18.0.0, SVG Export Plug-In . SVG Version: 6.00 Build 0)  -->
<!DOCTYPE svg PUBLIC "-//W3C//DTD SVG 1.1//EN" "http://www.w3.org/Graphics/SVG/1.1/DTD/svg11.dtd">
<svg version="1.1" xmlns="http://www.w3.org/2000/svg" xmlns:xlink="http://www.w3.org/1999/xlink" x="0px" y="0px"
	 viewBox="0 0 512 512" enable-background="new 0 0 512 512" xml:space="preserve">
<g id="Layer_3" display="none">
	<circle display="inline" cx="255" cy="255" r="256"/>
	<path display="inline" fill="#FFFFFF" d="M255,487C126.1,487,23,380.4,23,255C23,123.4,136.5,23,255,23c130.5,0,232,110.5,232,232
		C487,374.5,379.9,487,255,487z"/>
</g>
<g id="Layer_1">
	<path d="M310.7,256l82-82c12-12,12-31.7,0-43.8l-10.9-10.9c-12-12-31.7-12-43.8,0l-82,82l-82-82c-12-12-31.7-12-43.7,0l-10.9,10.9
		c-12,12-12,31.7,0,43.8l82,82l-82,82c-12,12-12,31.7,0,43.7l10.9,10.9c12,12,31.7,12,43.7,0l82-82l82,82c12,12,31.7,12,43.8,0
		l10.9-10.9c12-12,12-31.7,0-43.7L310.7,256z"/>
</g>
<g id="Layer_2" display="none">
	<polygon display="inline" points="206,390.8 100,246.8 138,215.8 206,308.8 378.5,121.2 412,155.8 	"/>
</g>
</svg>
